<svg xmlns="http://www.w3.org/2000/svg" xmlns:xlink="http://www.w3.org/1999/xlink" width="500" zoomAndPan="magnify" viewBox="0 0 375 374.999991" height="500" preserveAspectRatio="xMidYMid meet" version="1.0"><defs><g/><clipPath id="f4e4ff17ca"><path d="M 263.746094 208.78125 L 326.074219 208.78125 L 326.074219 271.109375 L 263.746094 271.109375 Z M 263.746094 208.78125 " clip-rule="nonzero"/></clipPath><clipPath id="2ffb19034a"><path d="M 294.910156 208.78125 C 277.699219 208.78125 263.746094 222.734375 263.746094 239.945312 C 263.746094 257.15625 277.699219 271.109375 294.910156 271.109375 C 312.121094 271.109375 326.074219 257.15625 326.074219 239.945312 C 326.074219 222.734375 312.121094 208.78125 294.910156 208.78125 Z M 294.910156 208.78125 " clip-rule="nonzero"/></clipPath><clipPath id="14f7319b62"><path d="M 281.746094 226.78125 L 308.074219 226.78125 L 308.074219 253.105469 L 281.746094 253.105469 Z M 281.746094 226.78125 " clip-rule="nonzero"/></clipPath><clipPath id="b636bf78ae"><path d="M 294.910156 226.78125 C 287.640625 226.78125 281.746094 232.675781 281.746094 239.945312 C 281.746094 247.214844 287.640625 253.105469 294.910156 253.105469 C 302.179688 253.105469 308.074219 247.214844 308.074219 239.945312 C 308.074219 232.675781 302.179688 226.78125 294.910156 226.78125 Z M 294.910156 226.78125 " clip-rule="nonzero"/></clipPath></defs><rect x="-37.5" width="450" fill="#ffffff" y="-37.499999" height="449.999989" fill-opacity="1"/><rect x="-37.5" width="450" fill="#000000" y="-37.499999" height="449.999989" fill-opacity="1"/><g fill="#afee85" fill-opacity="1"><g transform="translate(82.573044, 240.642611)"><g><path d="M 91.015625 -179.203125 L 91.015625 -50.609375 C 91.015625 -33.085938 86.195312 -19.726562 76.5625 -10.53125 C 66.9375 -1.332031 53.144531 3.265625 35.1875 3.265625 C 30.40625 3.265625 25.695312 2.679688 21.0625 1.515625 C 16.4375 0.359375 12.53125 -1.050781 9.34375 -2.71875 C 6.15625 -4.382812 3.289062 -6.082031 0.75 -7.8125 C -1.78125 -9.550781 -3.625 -11.003906 -4.78125 -12.171875 L -6.734375 -13.90625 L 6.296875 -48 C 14.835938 -39.894531 22.585938 -35.84375 29.546875 -35.84375 C 35.765625 -35.84375 40.753906 -37.90625 44.515625 -42.03125 C 48.285156 -46.15625 50.171875 -52.488281 50.171875 -61.03125 L 50.171875 -179.203125 Z M 91.015625 -179.203125 "/></g></g></g><g fill="#afee85" fill-opacity="1"><g transform="translate(161.6919, 240.642611)"><g><path d="M 13.03125 -179.203125 L 77.109375 -179.203125 C 94.347656 -179.203125 108.394531 -174.601562 119.25 -165.40625 C 130.113281 -156.21875 135.546875 -143.078125 135.546875 -125.984375 C 135.546875 -112.804688 132.25 -101.765625 125.65625 -92.859375 C 119.070312 -83.953125 110.128906 -77.691406 98.828125 -74.078125 L 160.53125 0 L 108.609375 0 L 53.875 -70.8125 L 53.875 0 L 13.03125 0 Z M 53.875 -99.703125 L 58.65625 -99.703125 C 62.414062 -99.703125 65.597656 -99.773438 68.203125 -99.921875 C 70.804688 -100.066406 73.773438 -100.570312 77.109375 -101.4375 C 80.441406 -102.3125 83.117188 -103.539062 85.140625 -105.125 C 87.171875 -106.71875 88.910156 -109.035156 90.359375 -112.078125 C 91.804688 -115.117188 92.53125 -118.8125 92.53125 -123.15625 C 92.53125 -127.5 91.804688 -131.191406 90.359375 -134.234375 C 88.910156 -137.273438 87.171875 -139.59375 85.140625 -141.1875 C 83.117188 -142.78125 80.441406 -144.007812 77.109375 -144.875 C 73.773438 -145.75 70.804688 -146.257812 68.203125 -146.40625 C 65.597656 -146.550781 62.414062 -146.625 58.65625 -146.625 L 53.875 -146.625 Z M 53.875 -99.703125 "/></g></g></g><g clip-path="url(#f4e4ff17ca)"><g clip-path="url(#2ffb19034a)"><path fill="#000000" d="M 263.746094 208.78125 L 326.074219 208.78125 L 326.074219 271.109375 L 263.746094 271.109375 Z M 263.746094 208.78125 " fill-opacity="1" fill-rule="nonzero"/></g></g><g clip-path="url(#14f7319b62)"><g clip-path="url(#b636bf78ae)"><path fill="#ffffff" d="M 281.746094 226.78125 L 308.074219 226.78125 L 308.074219 253.105469 L 281.746094 253.105469 Z M 281.746094 226.78125 " fill-opacity="1" fill-rule="nonzero"/></g></g><g fill="#ffffff" fill-opacity="1"><g transform="translate(91.274227, 282.857553)"><g><path d="M 10.765625 -18.0625 L 10.765625 -6.640625 C 10.765625 -6.234375 10.765625 -5.835938 10.765625 -5.453125 C 10.765625 -5.078125 10.738281 -4.703125 10.6875 -4.328125 C 10.644531 -3.953125 10.554688 -3.582031 10.421875 -3.21875 C 10.296875 -2.851562 10.113281 -2.503906 9.875 -2.171875 C 9.332031 -1.398438 8.675781 -0.800781 7.90625 -0.375 C 7.132812 0.0390625 6.289062 0.25 5.375 0.25 C 4.707031 0.25 4.082031 0.128906 3.5 -0.109375 C 2.914062 -0.359375 2.390625 -0.691406 1.921875 -1.109375 C 1.453125 -1.523438 1.054688 -2.007812 0.734375 -2.5625 C 0.410156 -3.125 0.191406 -3.710938 0.078125 -4.328125 L 2.5 -5.0625 C 2.550781 -4.695312 2.664062 -4.347656 2.84375 -4.015625 C 3.019531 -3.679688 3.234375 -3.382812 3.484375 -3.125 C 3.742188 -2.875 4.035156 -2.675781 4.359375 -2.53125 C 4.691406 -2.382812 5.039062 -2.3125 5.40625 -2.3125 C 5.8125 -2.3125 6.171875 -2.390625 6.484375 -2.546875 C 6.796875 -2.710938 7.0625 -2.925781 7.28125 -3.1875 C 7.5 -3.457031 7.675781 -3.765625 7.8125 -4.109375 C 7.945312 -4.460938 8.039062 -4.816406 8.09375 -5.171875 C 8.113281 -5.253906 8.128906 -5.429688 8.140625 -5.703125 C 8.148438 -5.972656 8.15625 -6.316406 8.15625 -6.734375 C 8.15625 -7.148438 8.15625 -7.617188 8.15625 -8.140625 C 8.15625 -8.671875 8.15625 -9.226562 8.15625 -9.8125 C 8.15625 -10.726562 8.148438 -11.664062 8.140625 -12.625 C 8.128906 -13.59375 8.125 -14.488281 8.125 -15.3125 L 8.125 -18.0625 Z M 10.765625 -18.0625 "/></g></g></g><g fill="#ffffff" fill-opacity="1"><g transform="translate(107.041685, 282.857553)"><g><path d="M 12.453125 -18.0625 L 12.453125 -15.65625 L 4.078125 -15.65625 L 4.078125 -10.75 L 11.53125 -10.75 L 11.53125 -8.28125 L 4.078125 -8.28125 L 4.078125 -2.46875 L 12.453125 -2.46875 L 12.453125 0 L 1.421875 0 L 1.421875 -18.0625 Z M 12.453125 -18.0625 "/></g></g></g><g fill="#ffffff" fill-opacity="1"><g transform="translate(124.515702, 282.857553)"><g><path d="M 16.328125 0 L 12.984375 0 L 7.3125 -7.796875 L 4.15625 -7.796875 L 4.15625 0 L 1.484375 0 L 1.484375 -18.0625 L 8.8125 -18.0625 C 9.519531 -18.0625 10.191406 -17.925781 10.828125 -17.65625 C 11.472656 -17.382812 12.023438 -17.015625 12.484375 -16.546875 C 12.953125 -16.085938 13.320312 -15.550781 13.59375 -14.9375 C 13.875 -14.320312 14.015625 -13.65625 14.015625 -12.9375 C 14.015625 -12.34375 13.921875 -11.78125 13.734375 -11.25 C 13.546875 -10.726562 13.285156 -10.253906 12.953125 -9.828125 C 12.617188 -9.398438 12.222656 -9.03125 11.765625 -8.71875 C 11.304688 -8.40625 10.804688 -8.171875 10.265625 -8.015625 Z M 8.8125 -10.296875 C 9.164062 -10.296875 9.503906 -10.363281 9.828125 -10.5 C 10.148438 -10.644531 10.425781 -10.835938 10.65625 -11.078125 C 10.882812 -11.316406 11.066406 -11.597656 11.203125 -11.921875 C 11.335938 -12.253906 11.40625 -12.609375 11.40625 -12.984375 C 11.40625 -13.359375 11.335938 -13.707031 11.203125 -14.03125 C 11.066406 -14.351562 10.882812 -14.632812 10.65625 -14.875 C 10.425781 -15.125 10.148438 -15.320312 9.828125 -15.46875 C 9.503906 -15.613281 9.164062 -15.6875 8.8125 -15.6875 L 4.15625 -15.6875 L 4.15625 -10.265625 Z M 8.8125 -10.296875 "/></g></g></g><g fill="#ffffff" fill-opacity="1"><g transform="translate(144.715133, 282.857553)"><g><path d="M 12.453125 -18.0625 L 12.453125 -15.65625 L 4.078125 -15.65625 L 4.078125 -10.75 L 11.53125 -10.75 L 11.53125 -8.28125 L 4.078125 -8.28125 L 4.078125 -2.46875 L 12.453125 -2.46875 L 12.453125 0 L 1.421875 0 L 1.421875 -18.0625 Z M 12.453125 -18.0625 "/></g></g></g><g fill="#ffffff" fill-opacity="1"><g transform="translate(162.18915, 282.857553)"><g><path d="M 16.8125 -18.0625 L 19.484375 -18.0625 L 19.484375 0 L 16.828125 0 L 16.828125 -13.859375 L 11.5625 -6.59375 L 9.5 -6.59375 L 4.203125 -13.859375 L 4.203125 0 L 1.53125 0 L 1.53125 -18.0625 L 4.203125 -18.0625 L 10.515625 -9.375 Z M 16.8125 -18.0625 "/></g></g></g><g fill="#ffffff" fill-opacity="1"><g transform="translate(186.693214, 282.857553)"><g><path d="M 6.59375 -8.453125 L 0.234375 -18.0625 L 3.40625 -18.0625 L 7.921875 -11.28125 L 12.421875 -18.0625 L 15.640625 -18.0625 L 9.265625 -8.453125 L 9.265625 0 L 6.59375 0 Z M 6.59375 -8.453125 "/></g></g></g><g fill="#ffffff" fill-opacity="1"><g transform="translate(206.153983, 282.857553)"><g/></g></g><g fill="#ffffff" fill-opacity="1"><g transform="translate(216.292325, 282.857553)"><g><path d="M 16.328125 0 L 12.984375 0 L 7.3125 -7.796875 L 4.15625 -7.796875 L 4.15625 0 L 1.484375 0 L 1.484375 -18.0625 L 8.8125 -18.0625 C 9.519531 -18.0625 10.191406 -17.925781 10.828125 -17.65625 C 11.472656 -17.382812 12.023438 -17.015625 12.484375 -16.546875 C 12.953125 -16.085938 13.320312 -15.550781 13.59375 -14.9375 C 13.875 -14.320312 14.015625 -13.65625 14.015625 -12.9375 C 14.015625 -12.34375 13.921875 -11.78125 13.734375 -11.25 C 13.546875 -10.726562 13.285156 -10.253906 12.953125 -9.828125 C 12.617188 -9.398438 12.222656 -9.03125 11.765625 -8.71875 C 11.304688 -8.40625 10.804688 -8.171875 10.265625 -8.015625 Z M 8.8125 -10.296875 C 9.164062 -10.296875 9.503906 -10.363281 9.828125 -10.5 C 10.148438 -10.644531 10.425781 -10.835938 10.65625 -11.078125 C 10.882812 -11.316406 11.066406 -11.597656 11.203125 -11.921875 C 11.335938 -12.253906 11.40625 -12.609375 11.40625 -12.984375 C 11.40625 -13.359375 11.335938 -13.707031 11.203125 -14.03125 C 11.066406 -14.351562 10.882812 -14.632812 10.65625 -14.875 C 10.425781 -15.125 10.148438 -15.320312 9.828125 -15.46875 C 9.503906 -15.613281 9.164062 -15.6875 8.8125 -15.6875 L 4.15625 -15.6875 L 4.15625 -10.265625 Z M 8.8125 -10.296875 "/></g></g></g><g fill="#ffffff" fill-opacity="1"><g transform="translate(236.491753, 282.857553)"><g><path d="M 12.453125 -18.0625 L 12.453125 -15.65625 L 4.078125 -15.65625 L 4.078125 -10.75 L 11.53125 -10.75 L 11.53125 -8.28125 L 4.078125 -8.28125 L 4.078125 -2.46875 L 12.453125 -2.46875 L 12.453125 0 L 1.421875 0 L 1.421875 -18.0625 Z M 12.453125 -18.0625 "/></g></g></g><g fill="#ffffff" fill-opacity="1"><g transform="translate(253.96577, 282.857553)"><g><path d="M 16.8125 -18.0625 L 19.484375 -18.0625 L 19.484375 0 L 16.828125 0 L 16.828125 -13.859375 L 11.5625 -6.59375 L 9.5 -6.59375 L 4.203125 -13.859375 L 4.203125 0 L 1.53125 0 L 1.53125 -18.0625 L 4.203125 -18.0625 L 10.515625 -9.375 Z M 16.8125 -18.0625 "/></g></g></g><g fill="#ffffff" fill-opacity="1"><g transform="translate(278.469839, 282.857553)"><g><path d="M 6.59375 -8.453125 L 0.234375 -18.0625 L 3.40625 -18.0625 L 7.921875 -11.28125 L 12.421875 -18.0625 L 15.640625 -18.0625 L 9.265625 -8.453125 L 9.265625 0 L 6.59375 0 Z M 6.59375 -8.453125 "/></g></g></g><g fill="#afee85" fill-opacity="1"><g transform="translate(91.526456, 300.918053)"><g><path d="M 0.71875 0 L 0.71875 -8.5625 L 3.765625 -8.5625 C 4.390625 -8.5625 4.9375 -8.445312 5.40625 -8.21875 C 5.882812 -8 6.28125 -7.695312 6.59375 -7.3125 C 6.914062 -6.925781 7.160156 -6.46875 7.328125 -5.9375 C 7.492188 -5.414062 7.578125 -4.863281 7.578125 -4.28125 C 7.578125 -3.675781 7.488281 -3.113281 7.3125 -2.59375 C 7.132812 -2.082031 6.894531 -1.632812 6.59375 -1.25 C 6.289062 -0.863281 5.925781 -0.554688 5.5 -0.328125 C 5.082031 -0.109375 4.632812 0 4.15625 0 Z M 3.71875 -1.171875 C 4.175781 -1.171875 4.566406 -1.253906 4.890625 -1.421875 C 5.210938 -1.585938 5.476562 -1.8125 5.6875 -2.09375 C 5.894531 -2.382812 6.046875 -2.71875 6.140625 -3.09375 C 6.242188 -3.46875 6.296875 -3.863281 6.296875 -4.28125 C 6.296875 -4.6875 6.242188 -5.078125 6.140625 -5.453125 C 6.046875 -5.835938 5.894531 -6.175781 5.6875 -6.46875 C 5.488281 -6.757812 5.222656 -6.988281 4.890625 -7.15625 C 4.566406 -7.332031 4.175781 -7.421875 3.71875 -7.421875 L 2 -7.421875 L 2 -1.171875 Z M 3.71875 -1.171875 "/></g></g></g><g fill="#afee85" fill-opacity="1"><g transform="translate(106.292194, 300.918053)"><g><path d="M 5.90625 -8.5625 L 5.90625 -7.421875 L 1.9375 -7.421875 L 1.9375 -5.09375 L 5.46875 -5.09375 L 5.46875 -3.921875 L 1.9375 -3.921875 L 1.9375 -1.171875 L 5.90625 -1.171875 L 5.90625 0 L 0.671875 0 L 0.671875 -8.5625 Z M 5.90625 -8.5625 "/></g></g></g><g fill="#afee85" fill-opacity="1"><g transform="translate(119.500455, 300.918053)"><g><path d="M 3.71875 0 L 0.171875 -8.5625 L 1.53125 -8.5625 L 4.421875 -1.625 L 7.3125 -8.5625 L 8.671875 -8.5625 L 5.125 0 Z M 3.71875 0 "/></g></g></g><g fill="#afee85" fill-opacity="1"><g transform="translate(134.918147, 300.918053)"><g><path d="M 5.90625 -8.5625 L 5.90625 -7.421875 L 1.9375 -7.421875 L 1.9375 -5.09375 L 5.46875 -5.09375 L 5.46875 -3.921875 L 1.9375 -3.921875 L 1.9375 -1.171875 L 5.90625 -1.171875 L 5.90625 0 L 0.671875 0 L 0.671875 -8.5625 Z M 5.90625 -8.5625 "/></g></g></g><g fill="#afee85" fill-opacity="1"><g transform="translate(148.126408, 300.918053)"><g><path d="M 0.71875 0 L 0.71875 -8.5625 L 1.984375 -8.5625 L 1.984375 -1.171875 L 5.9375 -1.171875 L 5.9375 0 Z M 0.71875 0 "/></g></g></g><g fill="#afee85" fill-opacity="1"><g transform="translate(160.900019, 300.918053)"><g><path d="M 4.65625 -8.6875 C 5.226562 -8.6875 5.769531 -8.566406 6.28125 -8.328125 C 6.800781 -8.097656 7.253906 -7.78125 7.640625 -7.375 C 8.023438 -6.976562 8.328125 -6.515625 8.546875 -5.984375 C 8.773438 -5.453125 8.890625 -4.882812 8.890625 -4.28125 C 8.890625 -3.675781 8.773438 -3.109375 8.546875 -2.578125 C 8.328125 -2.046875 8.019531 -1.582031 7.625 -1.1875 C 7.238281 -0.789062 6.785156 -0.472656 6.265625 -0.234375 C 5.753906 -0.00390625 5.210938 0.109375 4.640625 0.109375 C 4.054688 0.109375 3.503906 -0.00390625 2.984375 -0.234375 C 2.472656 -0.472656 2.023438 -0.789062 1.640625 -1.1875 C 1.265625 -1.582031 0.960938 -2.046875 0.734375 -2.578125 C 0.515625 -3.109375 0.40625 -3.675781 0.40625 -4.28125 C 0.40625 -4.882812 0.515625 -5.453125 0.734375 -5.984375 C 0.960938 -6.515625 1.269531 -6.976562 1.65625 -7.375 C 2.039062 -7.78125 2.488281 -8.097656 3 -8.328125 C 3.519531 -8.566406 4.070312 -8.6875 4.65625 -8.6875 Z M 4.65625 -1.09375 C 5.0625 -1.09375 5.441406 -1.171875 5.796875 -1.328125 C 6.160156 -1.492188 6.472656 -1.722656 6.734375 -2.015625 C 7.003906 -2.304688 7.210938 -2.644531 7.359375 -3.03125 C 7.515625 -3.425781 7.59375 -3.84375 7.59375 -4.28125 C 7.59375 -4.726562 7.515625 -5.144531 7.359375 -5.53125 C 7.210938 -5.914062 7.003906 -6.253906 6.734375 -6.546875 C 6.472656 -6.835938 6.160156 -7.0625 5.796875 -7.21875 C 5.441406 -7.382812 5.0625 -7.46875 4.65625 -7.46875 C 4.238281 -7.46875 3.847656 -7.382812 3.484375 -7.21875 C 3.128906 -7.0625 2.816406 -6.835938 2.546875 -6.546875 C 2.285156 -6.253906 2.078125 -5.914062 1.921875 -5.53125 C 1.765625 -5.144531 1.6875 -4.726562 1.6875 -4.28125 C 1.6875 -3.84375 1.765625 -3.425781 1.921875 -3.03125 C 2.078125 -2.644531 2.285156 -2.304688 2.546875 -2.015625 C 2.816406 -1.722656 3.128906 -1.492188 3.484375 -1.328125 C 3.847656 -1.171875 4.238281 -1.09375 4.65625 -1.09375 Z M 4.65625 -1.09375 "/></g></g></g><g fill="#afee85" fill-opacity="1"><g transform="translate(176.740293, 300.918053)"><g><path d="M 4.125 -8.5625 C 4.46875 -8.5625 4.785156 -8.492188 5.078125 -8.359375 C 5.378906 -8.234375 5.640625 -8.0625 5.859375 -7.84375 C 6.085938 -7.632812 6.265625 -7.378906 6.390625 -7.078125 C 6.515625 -6.785156 6.578125 -6.472656 6.578125 -6.140625 C 6.578125 -5.796875 6.515625 -5.472656 6.390625 -5.171875 C 6.265625 -4.878906 6.085938 -4.625 5.859375 -4.40625 C 5.640625 -4.1875 5.378906 -4.015625 5.078125 -3.890625 C 4.785156 -3.765625 4.46875 -3.703125 4.125 -3.703125 L 1.90625 -3.703125 L 1.90625 0 L 0.65625 0 L 0.65625 -8.5625 Z M 4.125 -4.875 C 4.300781 -4.875 4.460938 -4.90625 4.609375 -4.96875 C 4.753906 -5.039062 4.882812 -5.132812 5 -5.25 C 5.113281 -5.363281 5.203125 -5.5 5.265625 -5.65625 C 5.328125 -5.8125 5.359375 -5.976562 5.359375 -6.15625 C 5.359375 -6.332031 5.328125 -6.5 5.265625 -6.65625 C 5.203125 -6.8125 5.113281 -6.945312 5 -7.0625 C 4.882812 -7.175781 4.753906 -7.265625 4.609375 -7.328125 C 4.460938 -7.398438 4.300781 -7.4375 4.125 -7.4375 L 1.90625 -7.4375 L 1.90625 -4.875 Z M 4.125 -4.875 "/></g></g></g><g fill="#afee85" fill-opacity="1"><g transform="translate(190.346985, 300.918053)"><g><path d="M 4.125 -8.5625 C 4.46875 -8.5625 4.785156 -8.492188 5.078125 -8.359375 C 5.378906 -8.234375 5.640625 -8.0625 5.859375 -7.84375 C 6.085938 -7.632812 6.265625 -7.378906 6.390625 -7.078125 C 6.515625 -6.785156 6.578125 -6.472656 6.578125 -6.140625 C 6.578125 -5.796875 6.515625 -5.472656 6.390625 -5.171875 C 6.265625 -4.878906 6.085938 -4.625 5.859375 -4.40625 C 5.640625 -4.1875 5.378906 -4.015625 5.078125 -3.890625 C 4.785156 -3.765625 4.46875 -3.703125 4.125 -3.703125 L 1.90625 -3.703125 L 1.90625 0 L 0.65625 0 L 0.65625 -8.5625 Z M 4.125 -4.875 C 4.300781 -4.875 4.460938 -4.90625 4.609375 -4.96875 C 4.753906 -5.039062 4.882812 -5.132812 5 -5.25 C 5.113281 -5.363281 5.203125 -5.5 5.265625 -5.65625 C 5.328125 -5.8125 5.359375 -5.976562 5.359375 -6.15625 C 5.359375 -6.332031 5.328125 -6.5 5.265625 -6.65625 C 5.203125 -6.8125 5.113281 -6.945312 5 -7.0625 C 4.882812 -7.175781 4.753906 -7.265625 4.609375 -7.328125 C 4.460938 -7.398438 4.300781 -7.4375 4.125 -7.4375 L 1.90625 -7.4375 L 1.90625 -4.875 Z M 4.125 -4.875 "/></g></g></g><g fill="#afee85" fill-opacity="1"><g transform="translate(203.953678, 300.918053)"><g><path d="M 5.90625 -8.5625 L 5.90625 -7.421875 L 1.9375 -7.421875 L 1.9375 -5.09375 L 5.46875 -5.09375 L 5.46875 -3.921875 L 1.9375 -3.921875 L 1.9375 -1.171875 L 5.90625 -1.171875 L 5.90625 0 L 0.671875 0 L 0.671875 -8.5625 Z M 5.90625 -8.5625 "/></g></g></g><g fill="#afee85" fill-opacity="1"><g transform="translate(217.161939, 300.918053)"><g><path d="M 6.96875 -3.03125 C 6.96875 -2.59375 6.882812 -2.179688 6.71875 -1.796875 C 6.550781 -1.421875 6.328125 -1.085938 6.046875 -0.796875 C 5.765625 -0.515625 5.4375 -0.289062 5.0625 -0.125 C 4.6875 0.0390625 4.28125 0.125 3.84375 0.125 C 3.40625 0.125 2.992188 0.0390625 2.609375 -0.125 C 2.234375 -0.289062 1.90625 -0.515625 1.625 -0.796875 C 1.34375 -1.085938 1.117188 -1.421875 0.953125 -1.796875 C 0.796875 -2.179688 0.71875 -2.59375 0.71875 -3.03125 L 0.71875 -8.5625 L 1.96875 -8.5625 L 1.96875 -3.03125 C 1.96875 -2.769531 2.015625 -2.519531 2.109375 -2.28125 C 2.210938 -2.050781 2.347656 -1.847656 2.515625 -1.671875 C 2.679688 -1.492188 2.878906 -1.351562 3.109375 -1.25 C 3.335938 -1.144531 3.582031 -1.09375 3.84375 -1.09375 C 4.101562 -1.09375 4.34375 -1.144531 4.5625 -1.25 C 4.789062 -1.351562 4.988281 -1.492188 5.15625 -1.671875 C 5.320312 -1.847656 5.453125 -2.050781 5.546875 -2.28125 C 5.648438 -2.519531 5.703125 -2.769531 5.703125 -3.03125 L 5.703125 -8.5625 L 6.96875 -8.5625 Z M 6.96875 -3.03125 "/></g></g></g><g fill="#afee85" fill-opacity="1"><g transform="translate(231.39643, 300.918053)"><g><path d="M 7.734375 0 L 6.15625 0 L 3.46875 -3.703125 L 1.96875 -3.703125 L 1.96875 0 L 0.703125 0 L 0.703125 -8.5625 L 4.171875 -8.5625 C 4.515625 -8.5625 4.835938 -8.492188 5.140625 -8.359375 C 5.441406 -8.234375 5.703125 -8.0625 5.921875 -7.84375 C 6.140625 -7.632812 6.3125 -7.378906 6.4375 -7.078125 C 6.570312 -6.785156 6.640625 -6.472656 6.640625 -6.140625 C 6.640625 -5.859375 6.59375 -5.59375 6.5 -5.34375 C 6.414062 -5.09375 6.296875 -4.863281 6.140625 -4.65625 C 5.984375 -4.457031 5.796875 -4.28125 5.578125 -4.125 C 5.359375 -3.976562 5.125 -3.867188 4.875 -3.796875 Z M 4.171875 -4.875 C 4.347656 -4.875 4.507812 -4.90625 4.65625 -4.96875 C 4.8125 -5.039062 4.941406 -5.132812 5.046875 -5.25 C 5.160156 -5.363281 5.25 -5.5 5.3125 -5.65625 C 5.375 -5.8125 5.40625 -5.976562 5.40625 -6.15625 C 5.40625 -6.332031 5.375 -6.5 5.3125 -6.65625 C 5.25 -6.8125 5.160156 -6.945312 5.046875 -7.0625 C 4.941406 -7.175781 4.8125 -7.265625 4.65625 -7.328125 C 4.507812 -7.398438 4.347656 -7.4375 4.171875 -7.4375 L 1.96875 -7.4375 L 1.96875 -4.875 Z M 4.171875 -4.875 "/></g></g></g><g fill="#afee85" fill-opacity="1"><g transform="translate(245.896541, 300.918053)"><g/></g></g><g fill="#afee85" fill-opacity="1"><g transform="translate(255.627653, 300.918053)"><g><path d="M 9.953125 -8.5625 L 11.359375 -8.5625 L 8.796875 0 L 7.5625 0 L 5.96875 -5.328125 L 5.765625 -6.296875 L 5.546875 -5.28125 L 3.96875 0 L 2.71875 0 L 0.140625 -8.5625 L 1.53125 -8.5625 L 3.296875 -2.046875 L 5.296875 -8.5625 L 6.25 -8.5625 L 8.21875 -2.109375 Z M 9.953125 -8.5625 "/></g></g></g><g fill="#afee85" fill-opacity="1"><g transform="translate(273.76188, 300.918053)"><g><path d="M 5.90625 -8.5625 L 5.90625 -7.421875 L 1.9375 -7.421875 L 1.9375 -5.09375 L 5.46875 -5.09375 L 5.46875 -3.921875 L 1.9375 -3.921875 L 1.9375 -1.171875 L 5.90625 -1.171875 L 5.90625 0 L 0.671875 0 L 0.671875 -8.5625 Z M 5.90625 -8.5625 "/></g></g></g><g fill="#afee85" fill-opacity="1"><g transform="translate(286.970134, 300.918053)"><g><path d="M 6.734375 -2.390625 C 6.734375 -2.054688 6.671875 -1.742188 6.546875 -1.453125 C 6.421875 -1.171875 6.25 -0.921875 6.03125 -0.703125 C 5.820312 -0.484375 5.566406 -0.3125 5.265625 -0.1875 C 4.972656 -0.0625 4.664062 0 4.34375 0 L 0.671875 0 L 0.671875 -8.5625 L 4.015625 -8.5625 C 4.304688 -8.5625 4.582031 -8.503906 4.84375 -8.390625 C 5.101562 -8.273438 5.328125 -8.117188 5.515625 -7.921875 C 5.710938 -7.734375 5.863281 -7.507812 5.96875 -7.25 C 6.082031 -6.988281 6.140625 -6.707031 6.140625 -6.40625 C 6.140625 -6.039062 6.078125 -5.707031 5.953125 -5.40625 C 5.835938 -5.101562 5.644531 -4.847656 5.375 -4.640625 C 5.832031 -4.472656 6.171875 -4.1875 6.390625 -3.78125 C 6.617188 -3.375 6.734375 -2.910156 6.734375 -2.390625 Z M 1.9375 -5.09375 C 2.257812 -5.082031 2.554688 -5.078125 2.828125 -5.078125 L 4.03125 -5.078125 C 4.34375 -5.078125 4.601562 -5.191406 4.8125 -5.421875 C 5.019531 -5.648438 5.125 -5.925781 5.125 -6.25 C 5.125 -6.582031 5.019531 -6.859375 4.8125 -7.078125 C 4.601562 -7.304688 4.34375 -7.421875 4.03125 -7.421875 L 1.9375 -7.421875 Z M 1.9375 -1.171875 C 1.988281 -1.160156 2.113281 -1.15625 2.3125 -1.15625 L 4.34375 -1.15625 C 4.507812 -1.15625 4.664062 -1.191406 4.8125 -1.265625 C 4.957031 -1.335938 5.085938 -1.4375 5.203125 -1.5625 C 5.316406 -1.6875 5.40625 -1.832031 5.46875 -2 C 5.53125 -2.175781 5.5625 -2.359375 5.5625 -2.546875 C 5.5625 -2.742188 5.53125 -2.921875 5.46875 -3.078125 C 5.40625 -3.242188 5.316406 -3.390625 5.203125 -3.515625 C 5.085938 -3.640625 4.957031 -3.738281 4.8125 -3.8125 C 4.664062 -3.882812 4.507812 -3.921875 4.34375 -3.921875 L 1.9375 -3.921875 Z M 1.9375 -1.171875 "/></g></g></g></svg>