<svg xmlns="http://www.w3.org/2000/svg" xmlns:xlink="http://www.w3.org/1999/xlink" width="500" zoomAndPan="magnify" viewBox="0 0 375 374.999991" height="500" preserveAspectRatio="xMidYMid meet" version="1.0"><defs><g/><clipPath id="0d1865d286"><path d="M 292.496094 244.203125 L 375 244.203125 L 375 334.394531 L 292.496094 334.394531 Z M 292.496094 244.203125 " clip-rule="nonzero"/></clipPath><clipPath id="591dcbe940"><path d="M 337.59375 244.203125 C 312.6875 244.203125 292.496094 264.390625 292.496094 289.296875 C 292.496094 314.203125 312.6875 334.394531 337.59375 334.394531 C 362.5 334.394531 382.691406 314.203125 382.691406 289.296875 C 382.691406 264.390625 362.5 244.203125 337.59375 244.203125 Z M 337.59375 244.203125 " clip-rule="nonzero"/></clipPath><clipPath id="8197adb5a0"><path d="M 320.160156 271.644531 L 354.636719 271.644531 L 354.636719 308.773438 L 320.160156 308.773438 Z M 320.160156 271.644531 " clip-rule="nonzero"/></clipPath><clipPath id="78c40d849b"><path d="M 318.546875 270.25 L 356.640625 270.25 L 356.640625 308.347656 L 318.546875 308.347656 Z M 318.546875 270.25 " clip-rule="nonzero"/></clipPath><clipPath id="bc4c405b3b"><path d="M 337.59375 270.25 C 327.074219 270.25 318.546875 278.777344 318.546875 289.296875 C 318.546875 299.820312 327.074219 308.347656 337.59375 308.347656 C 348.113281 308.347656 356.640625 299.820312 356.640625 289.296875 C 356.640625 278.777344 348.113281 270.25 337.59375 270.25 Z M 337.59375 270.25 " clip-rule="nonzero"/></clipPath></defs><g fill="#000000" fill-opacity="1"><g transform="translate(30.326419, 290.309365)"><g><path d="M 131.703125 -259.328125 L 131.703125 -73.234375 C 131.703125 -47.878906 124.734375 -28.546875 110.796875 -15.234375 C 96.867188 -1.929688 76.910156 4.71875 50.921875 4.71875 C 44.003906 4.71875 37.191406 3.878906 30.484375 2.203125 C 23.785156 0.523438 18.128906 -1.515625 13.515625 -3.921875 C 8.898438 -6.335938 4.757812 -8.800781 1.09375 -11.3125 C -2.570312 -13.832031 -5.242188 -15.929688 -6.921875 -17.609375 L -9.75 -20.125 L 9.109375 -69.46875 C 21.472656 -57.726562 32.6875 -51.859375 42.75 -51.859375 C 51.757812 -51.859375 58.988281 -54.84375 64.4375 -60.8125 C 69.882812 -66.789062 72.609375 -75.960938 72.609375 -88.328125 L 72.609375 -259.328125 Z M 131.703125 -259.328125 "/></g></g></g><g fill="#000000" fill-opacity="1"><g transform="translate(145.009653, 290.309365)"><g><path d="M 18.859375 -259.328125 L 111.59375 -259.328125 C 136.53125 -259.328125 156.859375 -252.671875 172.578125 -239.359375 C 188.296875 -226.054688 196.15625 -207.039062 196.15625 -182.3125 C 196.15625 -163.25 191.382812 -147.269531 181.84375 -134.375 C 172.3125 -121.488281 159.375 -112.425781 143.03125 -107.1875 L 232.296875 0 L 157.171875 0 L 77.953125 -102.46875 L 77.953125 0 L 18.859375 0 Z M 77.953125 -144.28125 L 84.875 -144.28125 C 90.320312 -144.28125 94.929688 -144.382812 98.703125 -144.59375 C 102.472656 -144.800781 106.769531 -145.535156 111.59375 -146.796875 C 116.414062 -148.054688 120.289062 -149.835938 123.21875 -152.140625 C 126.15625 -154.441406 128.671875 -157.789062 130.765625 -162.1875 C 132.859375 -166.59375 133.90625 -171.9375 133.90625 -178.21875 C 133.90625 -184.507812 132.859375 -189.851562 130.765625 -194.25 C 128.671875 -198.65625 126.15625 -202.007812 123.21875 -204.3125 C 120.289062 -206.625 116.414062 -208.40625 111.59375 -209.65625 C 106.769531 -210.914062 102.472656 -211.648438 98.703125 -211.859375 C 94.929688 -212.078125 90.320312 -212.1875 84.875 -212.1875 L 77.953125 -212.1875 Z M 77.953125 -144.28125 "/></g></g></g><g clip-path="url(#0d1865d286)"><g clip-path="url(#591dcbe940)"><path fill="#ffffff" d="M 292.496094 244.203125 L 382.691406 244.203125 L 382.691406 334.394531 L 292.496094 334.394531 Z M 292.496094 244.203125 " fill-opacity="1" fill-rule="nonzero"/></g></g><g clip-path="url(#8197adb5a0)"><path fill="#000000" d="M 340.304688 289.488281 C 339.816406 292.308594 337.472656 295.589844 335.179688 295.589844 C 333.144531 295.589844 332.839844 293.773438 332.839844 292.691406 C 332.839844 288.265625 336.019531 284.523438 339.78125 284.523438 C 340.214844 284.523438 340.636719 284.558594 341.035156 284.621094 C 341.078125 284.625 341.109375 284.648438 341.132812 284.679688 C 341.15625 284.714844 341.167969 284.753906 341.160156 284.796875 Z M 344.898438 291.296875 L 346.691406 281.519531 C 346.707031 281.453125 346.671875 281.386719 346.613281 281.359375 L 346.058594 281.097656 C 344.511719 280.367188 342.4375 279.949219 340.378906 279.949219 C 333.398438 279.949219 327.722656 285.753906 327.722656 292.894531 C 327.722656 297.699219 330.875 300.21875 333.992188 300.21875 C 336.511719 300.21875 338.644531 299.234375 340.355469 297.289062 C 340.386719 297.25 340.4375 297.230469 340.488281 297.242188 C 340.539062 297.25 340.582031 297.285156 340.597656 297.332031 C 340.851562 298.003906 341.195312 298.496094 341.515625 298.839844 C 342.34375 299.730469 343.519531 300.21875 344.828125 300.21875 C 349.667969 300.21875 354.5625 295.753906 354.5625 287.222656 C 354.5625 278.050781 348.261719 271.644531 339.238281 271.644531 C 328.414062 271.644531 320.25 280.410156 320.25 292.03125 C 320.25 301.734375 326.945312 308.773438 336.167969 308.773438 C 339.824219 308.773438 342.675781 308.117188 345.410156 306.640625 L 346.015625 306.3125 C 346.082031 306.277344 346.113281 306.199219 346.085938 306.128906 L 344.738281 302.417969 C 344.722656 302.378906 344.691406 302.347656 344.648438 302.332031 C 344.613281 302.316406 344.566406 302.320312 344.527344 302.34375 L 343.734375 302.796875 C 341.878906 303.863281 339.386719 304.449219 336.714844 304.449219 C 329.660156 304.449219 324.925781 299.335938 324.925781 291.726562 C 324.925781 282.539062 330.777344 275.871094 338.839844 275.871094 C 345.660156 275.871094 349.894531 280.335938 349.894531 287.527344 C 349.894531 290.675781 349.03125 293.34375 347.53125 294.847656 C 346.878906 295.503906 346.167969 295.878906 345.5 295.84375 C 345.175781 295.835938 345.039062 295.714844 344.953125 295.601562 C 344.738281 295.328125 344.308594 294.363281 344.898438 291.296875 " fill-opacity="1" fill-rule="nonzero"/></g><g clip-path="url(#78c40d849b)"><g clip-path="url(#bc4c405b3b)"><path fill="#000000" d="M 318.546875 270.25 L 356.640625 270.25 L 356.640625 308.347656 L 318.546875 308.347656 Z M 318.546875 270.25 " fill-opacity="1" fill-rule="nonzero"/></g></g></svg>